{"title":"Paw.Patrol.Meet.Everest.2015.DVDRip.x264-AC3-MenaceIISociety","uid":12300892,"size":989495703,"categoryP":"video","categoryS":"movies","magnet":"?xt=urn:btih:c4621feb1b038d94be2248a3d51bc810658cb87f&amp;dn=Paw.Patrol.Meet.Everest.2015.DVDRip.x264-AC3-MenaceIISociety&amp;tr=udp%3A%2F%2Ftracker.openbittorrent.com%3A80&amp;tr=udp%3A%2F%2Fopen.demonii.com%3A1337&amp;tr=udp%3A%2F%2Ftracker.coppersurfer.tk%3A6969&amp;tr=udp%3A%2F%2Fexodus.desync.com%3A6969","seeders":0,"leechers":0,"uploader":"TvTeam","files":4,"time":1440695309,"description":"------------------------------------------------------------------------\n\n &lt;a href=&quot; https://www.torrenting.com&quot; rel=&quot;nofollow&quot; target=&quot;_NEW&quot;&gt; https://www.torrenting.com&lt;/a&gt;\n\nSign up is OPEN - for time being. Come and have fun\n\n.......................................................................................................................[center][img]http://s27.postimg.org/c6oabjzmb/image.jpg[/img]\n\nPaw.Patrol.Meet.Everest.2015.DVDRip.x264-AC3-MenaceIISociety\n\nSource: DVDR.NTSC [THANKS]\n\n[u][b]Includes the following episodes[b][/u].\n\n[b][u]The New Pup[/u][/b]- The PAW Patrol rolls out in their new PAW Patroller to save Jake when he gets stranded in the ice fields, but a new pup also pops up to lend a paw--the brave ranger, Everest!\n\n[b][u]Pups and the Big Freeze[/u][/b]- When a winter ice storm causes trouble all over Adventure Bay, Mayor Goodway's car hits an icy patch and gets stuck in the snow. Then, a train engineer can't break on the icy tracks as it heads for a huge snow drift on the crossing. It's up to Ryder, Rubble, and Everest to clear out all the snow and ice!\n\n[b][u]Pups Save the Deer[/u][/b]- When a family of deer gets separated on slippery ice and a snowy hill, it's up to Zuma and Everest to lead an icy rescue to reunite them!\n\n[b][u]Pups Make A Splash[/u][/b]- When Cap'n Turbot's boat runs aground, Ryder, Zuma, Skye, and Rocky must team up to save it before it sinks!\n\n[b][u]Pups Save A School Day[/u][/b]- Alex loses his back pack on the first day of school\n\nGeneral\nUnique ID                                : 203495452438430285946142754984808151638 (0x9917CC6D1A6045EDA1469F08C50FFA56)\nComplete name                            : Paw.Patrol.Meet.Everest.2015.DVDRip.x264-AC3-MenaceIISociety.mkv\nFormat                                   : Matroska\nFormat version                           : Version 2\nFile size                                : 924 MiB\nDuration                                 : 1h 36mn\nOverall bit rate mode                    : Variable\nOverall bit rate                         : 1 334 Kbps\nEncoded date                             : UTC 2015-08-27 14:35:32\nWriting application                      : mkvmerge v8.2.0 ('World of Adventure') 32bit\nWriting library                          : libebml v1.3.1 + libmatroska v1.4.2\n\nVideo\nID                                       : 1\nFormat                                   : AVC\nFormat/Info                              : Advanced Video Codec\nFormat profile                           : &lt;a class=&quot;__cf_email__&quot; href=&quot;/cdn-cgi/l/email-protection&quot; data-cfemail=&quot;337b5a545b737f071d02&quot;&gt;[email&amp;#160;protected]&lt;/a&gt;&lt;script data-cfhash='f9e31' type=&quot;text/javascript&quot;&gt;\n/* &lt;![CDATA[ */!function(){try{var t=&quot;currentScript&quot;in document?document.currentScript:function(){for(var t=document.getElementsByTagName(&quot;script&quot;),e=t.length;e--;)if(t[e].getAttribute(&quot;data-cfhash&quot;))return t[e]}();if(t&amp;&amp;t.previousSibling){var e,r,n,i,c=t.previousSibling,a=c.getAttribute(&quot;data-cfemail&quot;);if(a){for(e=&quot;&quot;,r=parseInt(a.substr(0,2),16),n=2;a.length-n;n+=2)i=parseInt(a.substr(n,2),16)^r,e+=String.fromCharCode(i);e=document.createTextNode(e),c.parentNode.replaceChild(e,c)}t.parentNode.removeChild(t);}}catch(u){}}()/* ]]&gt; */&lt;/script&gt;\nFormat settings, CABAC                   : Yes\nFormat settings, ReFrames                : 3 frames\nCodec ID                                 : V_MPEG4/ISO/AVC\nDuration                                 : 1h 36mn\nBit rate mode                            : Variable\nBit rate                                 : 860 Kbps\nMaximum bit rate                         : 40.0 Mbps\nWidth                                    : 720 pixels\nHeight                                   : 400 pixels\nDisplay aspect ratio                     : 16:9\nFrame rate mode                          : Constant\nFrame rate                               : 23.976 fps\nColor space                              : YUV\nChroma subsampling                       : 4:2:0\nBit depth                                : 8 bits\nScan type                                : Progressive\nBits/(Pixel*Frame)                       : 0.125\nStream size                              : 595 MiB (64%)\nWriting library                          : x264 core 148 r2579 73ae2d1\n\nAudio\nID                                       : 2\nFormat                                   : AC-3\nFormat/Info                              : Audio Coding 3\nMode extension                           : CM (complete main)\nFormat settings, Endianness              : Big\nCodec ID                                 : A_AC3\nDuration                                 : 1h 36mn\nBit rate mode                            : Constant\nBit rate                                 : 448 Kbps\nChannel(s)                               : 6 channels\nChannel positions                        : Front: L C R, Side: L R, LFE\nSampling rate                            : 48.0 KHz\nCompression mode                         : Lossy\nStream size                              : 310 MiB (34%)\nLanguage                                 : English\nDefault                                  : Yes\nForced                                   : No\n\n[img]http://s9.postimg.org/mlez88g7j/image.jpg[/img] \n[img]http://s9.postimg.org/5wdjcbjm7/image.jpg[/img] \n[img]http://s9.postimg.org/atr3xfllb/image.jpg[/img] \n[img]http://s9.postimg.org/ec33ttmhb/image.jpg[/img] \n \n[img]http://s17.postimg.org/r1iiyw8yn/Untitled_1.png[/img][/center]","torrent":{"xt":"urn:btih:c4621feb1b038d94be2248a3d51bc810658cb87f","amp;dn":"Paw.Patrol.Meet.Everest.2015.DVDRip.x264-AC3-MenaceIISociety","amp;tr":["udp%3A%2F%2Ftracker.openbittorrent.com%3A80","udp%3A%2F%2Fopen.demonii.com%3A1337","udp%3A%2F%2Ftracker.coppersurfer.tk%3A6969","udp%3A%2F%2Fexodus.desync.com%3A6969"],"infoHash":"c4621feb1b038d94be2248a3d51bc810658cb87f","infoHashBuffer":{"type":"Buffer","data":[196,98,31,235,27,3,141,148,190,34,72,163,213,27,200,16,101,140,184,127]},"announce":[],"urlList":[]}}